<svg xmlns="http://www.w3.org/2000/svg" viewBox="0 0 67.49 66.47"><defs><style>.cls-1{fill:#4f2200;}.cls-2{fill:red;}.cls-3{fill:#009e00;}.cls-4{fill:#ff4242;}</style></defs><title>apple</title><g id="Layer_2" data-name="Layer 2"><g id="Apple"><path class="cls-1" d="M32.72,19.43C30.68,13.29,37.84,1,39.88,0L43,1S34.77,12.27,32.72,19.43Z"/><path class="cls-2" d="M67.49,36.81c0,23.53-20.45,32.73-32.72,27.62C23.52,71.58,0,59.31,0,37.84c0-16.1,12.27-31.7,33.24-22.5C59.31,4.09,67.49,20.72,67.49,36.81Z"/><path class="cls-3" d="M33.39,13.86c-8.76,4.53-22-2.66-23.23-8.71C18.52-.65,34,2.91,33.39,13.86Z"/><ellipse class="cls-4" cx="10.87" cy="25.93" rx="6.58" ry="3.29" transform="translate(-16.73 20.59) rotate(-56.31)"/></g></g></svg>