<svg xmlns="http://www.w3.org/2000/svg" viewBox="0 0 214.57 309.24"><defs><style>.cls-1{fill:#ffb000;}.cls-2{fill:#f9d180;}.cls-3{fill:#ff4040;}.cls-4{fill:#232323;}</style></defs><title>chi2</title><g id="Layer_2" data-name="Layer 2"><g id="Chi2"><rect class="cls-1" x="39.86" y="235.68" width="26.75" height="59.07" rx="12" ry="12" transform="translate(-48.17 14.44) rotate(-10.67)"/><rect class="cls-1" x="147.97" y="235.68" width="26.75" height="59.07" rx="12" ry="12" transform="translate(270.8 555.71) rotate(-169.33)"/><path class="cls-1" d="M151.31,187.76H63.26c-7.35,0-13.37,5.46-13.37,12.14L51.26,215,81.1,229v58H57.75c.56,6.21,6.33,11.14,13.32,11.14h72.44c7.35,0,13.37-5.46,13.37-12.15l7.8-86C164.68,193.22,158.67,187.76,151.31,187.76Z"/><path class="cls-2" d="M81.1,281V229L51.26,215l5.92,65.25H47.66a13.41,13.41,0,0,0-13.37,13.37v2.23a13.42,13.42,0,0,0,13.37,13.38h29A13.42,13.42,0,0,0,90,295.86v-2.23A13.42,13.42,0,0,0,81.1,281Z"/><path class="cls-2" d="M133.48,281V229l29.83-14-5.91,65.25h9.51a13.42,13.42,0,0,1,13.38,13.37v2.23a13.42,13.42,0,0,1-13.38,13.38h-29a13.42,13.42,0,0,1-13.38-13.38v-2.23A13.42,13.42,0,0,1,133.48,281Z"/><circle class="cls-1" cx="106.38" cy="119.53" r="80.96"/><path class="cls-2" d="M116,136.43V101.25a9.88,9.88,0,0,0-8.34-9.91,9.66,9.66,0,0,0-10.93,9.55V137.2a13.88,13.88,0,0,1-10,13.26c-13.88,4.12-27.38,12.27-39.43,24.32,3.85,20.56,36.62,45,60.39,45s52.69-19.28,57.83-45c-11.6-12.94-25.07-21.22-39.2-25A13.82,13.82,0,0,1,116,136.43Z"/><path class="cls-1" d="M6.42.26A4.85,4.85,0,0,0,.08,5.69C3.7,26.5,14.94,81.62,33.28,88.13c22.66,8,47.52-13.37,46.33-39.89C78.65,26.79,26.37,7,6.42.26Z"/><path class="cls-3" d="M37.57,76S31.21,72.9,23.12,47.49c-3.28-10.29-5.88-21.28-7.78-30.36C53.1,31.55,70.84,47.91,66.77,48.81,55,51.42,42.13,61.7,37.57,76Z"/><path class="cls-1" d="M208.16,1.55A4.85,4.85,0,0,1,214.5,7c-3.62,20.8-14.86,75.93-33.2,82.43-22.66,8-47.52-13.36-46.33-39.89C135.93,28.07,188.21,8.32,208.16,1.55Z"/><path class="cls-3" d="M177,77.3s6.37-3.12,14.46-28.53c3.27-10.29,5.88-21.28,7.77-30.35C161.48,32.84,143.73,49.2,147.8,50.1,159.6,52.71,172.45,63,177,77.3Z"/><path class="cls-3" d="M92.17,197.6s3,12.16,14,12.16,14-12.16,14-12.16l-14-8.84Z"/><path class="cls-4" d="M124.28,200.44,109,187.85l-.05-.08h0v-.38c7.18-1.15,12.64-6.64,12.64-13.26,0-7.45-30.84-7.45-30.84,0,0,6.75,5.66,12.32,13.06,13.32v.4L88.54,200.44a.61.61,0,0,0,.64,1l17.23-9,17.23,9A.61.61,0,0,0,124.28,200.44Z"/><path class="cls-4" d="M63,130A16,16,0,0,1,78.9,144.76c0-.41.06-.82.06-1.24a16,16,0,1,0-32,0c0,.42,0,.83,0,1.24A16,16,0,0,1,63,130Z"/><path class="cls-4" d="M152,130a16,16,0,0,1,15.94,14.77c0-.41.06-.82.06-1.24a16,16,0,1,0-32,0c0,.42,0,.83,0,1.24A16,16,0,0,1,152,130Z"/></g></g></svg>