<svg xmlns="http://www.w3.org/2000/svg" viewBox="0 0 336 423"><defs><style>.cls-1{fill:#fff;}.cls-2{fill:#ff4040;}.cls-3{fill:#ffb000;}.cls-4{fill:#f9d180;}.cls-5{fill:#232323;}</style></defs><title>chiSelect</title><g id="Layer_2" data-name="Layer 2"><g id="Chi_select" data-name="Chi select"><rect class="cls-1" width="336" height="423" rx="86.21" ry="86.21"/><rect class="cls-2" x="-33.5" y="53.5" width="403" height="316" rx="76.21" ry="76.21" transform="translate(379.5 43.5) rotate(90)"/><rect class="cls-1" x="-23.5" y="63.5" width="383" height="296" rx="66.21" ry="66.21" transform="translate(379.5 43.5) rotate(90)"/><circle class="cls-3" cx="167.09" cy="221.15" r="80.96"/><path class="cls-4" d="M176.73,238.05V202.88a9.9,9.9,0,0,0-8.35-9.92,9.67,9.67,0,0,0-10.93,9.55v36.31a13.89,13.89,0,0,1-10,13.27C133.53,256.2,120,264.35,108,276.4c3.85,20.56,36.62,45,60.39,45s52.69-19.28,57.83-45c-11.6-12.94-25.06-21.22-39.2-25A13.8,13.8,0,0,1,176.73,238.05Z"/><circle class="cls-5" cx="123.4" cy="237.85" r="15.42"/><circle class="cls-1" cx="118.53" cy="234.61" r="4.06"/><circle class="cls-5" cx="213.35" cy="237.85" r="15.42"/><circle class="cls-1" cx="208.48" cy="234.61" r="4.06"/><path class="cls-5" d="M182.51,275.76c0,7.45-6.91,13.49-15.42,13.49s-15.42-6-15.42-13.49S182.51,268.31,182.51,275.76Z"/><path class="cls-3" d="M67.13,101.89a4.84,4.84,0,0,0-6.34,5.43c3.62,20.8,14.86,75.93,33.2,82.43,22.66,8,47.52-13.37,46.33-39.89C139.36,128.41,87.08,108.65,67.13,101.89Z"/><path class="cls-2" d="M98.29,177.64s-6.37-3.12-14.46-28.53c-3.27-10.29-5.88-21.28-7.77-30.36,37.75,14.43,55.5,30.79,51.42,31.69C115.69,153,102.84,163.32,98.29,177.64Z"/><path class="cls-3" d="M268.87,103.17a4.85,4.85,0,0,1,6.34,5.43c-3.62,20.8-14.86,75.93-33.2,82.43-22.66,8-47.52-13.36-46.33-39.89C196.64,129.69,248.92,109.94,268.87,103.17Z"/><path class="cls-2" d="M237.71,178.92s6.37-3.12,14.46-28.53c3.27-10.29,5.88-21.27,7.77-30.35-37.75,14.42-55.5,30.78-51.42,31.68C220.31,154.33,233.16,164.61,237.71,178.92Z"/><path class="cls-5" d="M169.66,281.54v7.86h0l0,.08L185,302.06a.62.62,0,0,1-.64,1.05l-17.24-9-17.23,9a.62.62,0,0,1-.64-1.05l15.27-12.58v-7.94Z"/></g></g></svg>