<svg xmlns="http://www.w3.org/2000/svg" viewBox="0 0 336 423"><defs><style>.cls-1{fill:#fff;}.cls-2{fill:#009e00;}.cls-3{fill:#ffb000;}.cls-4{fill:#f9d180;}.cls-5{fill:#ff4040;}.cls-6{fill:#232323;}</style></defs><title>chiSelected</title><g id="Layer_2" data-name="Layer 2"><g id="Chi_Selected" data-name="Chi Selected"><rect class="cls-1" width="336" height="423" rx="86.21" ry="86.21"/><rect class="cls-2" x="-33.5" y="53.5" width="403" height="316" rx="76.21" ry="76.21" transform="translate(379.5 43.5) rotate(90)"/><rect class="cls-1" x="-23.5" y="63.5" width="383" height="296" rx="66.21" ry="66.21" transform="translate(379.5 43.5) rotate(90)"/><circle class="cls-3" cx="167.09" cy="221.15" r="80.96"/><path class="cls-4" d="M176.73,238.05V202.88a9.9,9.9,0,0,0-8.35-9.92,9.67,9.67,0,0,0-10.93,9.55v36.31a13.89,13.89,0,0,1-10,13.27C133.53,256.2,120,264.35,108,276.4c3.85,20.56,36.62,45,60.39,45s52.69-19.28,57.83-45c-11.6-12.94-25.06-21.22-39.2-25A13.8,13.8,0,0,1,176.73,238.05Z"/><path class="cls-3" d="M67.13,101.89a4.84,4.84,0,0,0-6.34,5.43c3.62,20.8,14.86,75.93,33.2,82.43,22.66,8,47.52-13.37,46.33-39.89C139.36,128.41,87.08,108.65,67.13,101.89Z"/><path class="cls-5" d="M98.29,177.64s-6.37-3.12-14.46-28.53c-3.27-10.29-5.88-21.28-7.77-30.36,37.75,14.43,55.5,30.79,51.42,31.69C115.69,153,102.84,163.32,98.29,177.64Z"/><path class="cls-3" d="M268.87,103.17a4.85,4.85,0,0,1,6.34,5.43c-3.62,20.8-14.86,75.93-33.2,82.43-22.66,8-47.52-13.36-46.33-39.89C196.64,129.69,248.92,109.94,268.87,103.17Z"/><path class="cls-5" d="M237.71,178.92s6.37-3.12,14.46-28.53c3.27-10.29,5.88-21.27,7.77-30.35-37.75,14.42-55.5,30.78-51.42,31.68C220.31,154.33,233.16,164.61,237.71,178.92Z"/><path class="cls-5" d="M152.88,299.22s3,12.16,14,12.16,14-12.16,14-12.16l-14-8.84Z"/><path class="cls-6" d="M185,302.06l-15.28-12.59,0-.08h0V289c7.19-1.14,12.64-6.64,12.64-13.26,0-7.45-30.84-7.45-30.84,0,0,6.75,5.67,12.32,13.06,13.32v.4l-15.27,12.58a.62.62,0,0,0,.64,1.05l17.23-9,17.24,9A.62.62,0,0,0,185,302.06Z"/><path class="cls-6" d="M123.67,231.61a16,16,0,0,1,16,14.77c0-.41,0-.82,0-1.23a16,16,0,1,0-32,0c0,.41,0,.82,0,1.23A16,16,0,0,1,123.67,231.61Z"/><path class="cls-6" d="M212.67,231.61a16,16,0,0,1,16,14.77c0-.41,0-.82,0-1.23a16,16,0,0,0-32,0c0,.41,0,.82.05,1.23A16,16,0,0,1,212.67,231.61Z"/></g></g></svg>