<svg xmlns="http://www.w3.org/2000/svg" viewBox="0 0 296.49 358"><defs><style>.cls-1{fill:red;}.cls-2{fill:#ff4848;}.cls-3{fill:#c4c4c4;}.cls-4{fill:#fff;}.cls-5{fill:#c9c9c9;}.cls-6{fill:#af4f00;}.cls-7{fill:#ff4040;}.cls-8{fill:#3a3a3a;}.cls-9{fill:#009e00;}.cls-10{fill:#42b742;}.cls-11{fill:#ff8b00;}.cls-12{fill:#ffb65f;}.cls-13{fill:#4f2200;}.cls-14{fill:#ff4242;}</style></defs><title>machine</title><g id="Layer_2" data-name="Layer 2"><g id="Dispensing_Machine" data-name="Dispensing Machine"><rect class="cls-1" width="296.49" height="358"/><polygon class="cls-2" points="296.49 0 0 358 296.49 358 296.49 0"/><rect class="cls-3" x="31.37" y="-11.69" width="233.75" height="279.26" transform="translate(276.19 -20.3) rotate(90)"/><rect class="cls-4" x="11.07" y="13.53" width="274.34" height="228.82"/><rect class="cls-4" x="104.57" y="187" width="87.35" height="232.52" transform="translate(451.5 155.01) rotate(90)"/><rect x="38.14" y="265.73" width="220.21" height="75.04"/><rect class="cls-5" x="19.68" y="25.84" width="123.02" height="79.97"/><rect class="cls-5" x="150.09" y="25.84" width="123.02" height="79.97"/><rect class="cls-5" x="19.68" y="132.87" width="123.02" height="79.97"/><rect class="cls-5" x="150.09" y="132.87" width="123.02" height="79.97"/><path class="cls-4" d="M103.42,48.47,52.72,78.32a6.29,6.29,0,0,0-7.2-.64,6.37,6.37,0,0,0-2.12,8.76,6.54,6.54,0,0,0,2.41,2.38,6.52,6.52,0,0,0,.91,3.27,6.38,6.38,0,0,0,8.7,2.39,6.28,6.28,0,0,0,3-6.2l50.83-29.93Z"/><ellipse class="cls-6" cx="92.03" cy="60.88" rx="29.21" ry="20.2" transform="translate(-18.16 55.12) rotate(-30.49)"/><path class="cls-7" d="M195.39,93.89c-10.6,0-18-3.8-19.77-10.16-1.35-4.82,0-12.47,14-21.72a18.36,18.36,0,0,1,3.05-13c4-5.67,11.6-9.18,22.56-10.45a62.85,62.85,0,0,1,7.15-.43c9.78,0,16.93,2.87,21.26,8.53,3.27,4.28,4.79,9.8,4.79,17.39,0,14.44-9,17.67-28.75,24.74l-2.4.86A66.11,66.11,0,0,1,195.39,93.89Z"/><path class="cls-4" d="M195.39,92.84c-10.1,0-17.12-3.51-18.76-9.4-1.29-4.6.22-11.89,14.15-20.91a17.55,17.55,0,0,1,2.79-12.91c3.82-5.41,11.16-8.78,21.82-10a61,61,0,0,1,7-.43c9.44,0,16.31,2.73,20.43,8.11,3.12,4.09,4.57,9.42,4.57,16.76,0,13.7-8.21,16.64-28.06,23.76l-2.39.86A65.37,65.37,0,0,1,195.39,92.84Z"/><path class="cls-7" d="M243.93,64.06c0,11.68-6.59,13.58-28.14,21.33-30.78,11-51.52-2.71-21.15-21.15-3.5-15.21,9.54-19.82,21.15-21.15C240.08,40.29,243.93,52.38,243.93,64.06Z"/><circle class="cls-4" cx="194.47" cy="79.27" r="4.37"/><polygon class="cls-8" points="38.14 340.78 76.28 326.01 223.9 326.01 258.35 340.78 38.14 340.78"/><path class="cls-9" d="M84.61,157.26c5.93,1.12,6.22-3.28,7.88-4.51s5.34-1.17,6.85-2.82c2.15-2.34-1.07-4.67-.16-7.41s3-5.61.54-6.42S94,138.8,93.08,141c-2,4.68-6.8,3.34-7.77,5.56a14.92,14.92,0,0,0-1.07,7C84.45,155.69,82.79,156.92,84.61,157.26Z"/><path class="cls-10" d="M81,162.93s6.11-16,13.56-18.88C88.69,150.48,82.9,163.8,82.9,163.8Z"/><path class="cls-9" d="M85.34,159.65c4.54,1.52,5.11-2.32,6.51-3.25s4.27-.55,5.58-1.86c1.86-1.86-.46-4.19.47-6.52s2.79-4.65.93-5.58-4.65,1.86-5.58,3.72c-2,3.93-5.59,2.33-6.52,4.19a14.33,14.33,0,0,0-1.39,6.05C85.34,158.26,83.94,159.19,85.34,159.65Z"/><path class="cls-10" d="M82.08,164.31s6-13.5,12.1-15.36c-5.12,5.12-10.71,16.29-10.71,16.29Z"/><path class="cls-9" d="M82.62,158.07c-4.14-2.41-1.64-5.38-1.86-7s-2.41-3.56-2.3-5.42c.17-2.63,3.45-2.42,4.58-4.66s1.65-5.17,3.58-4.39,1.68,4.72.9,6.65c-1.65,4.07,1.94,5.73,1.16,7.66a14.28,14.28,0,0,1-3.62,5C83.67,157.15,83.89,158.81,82.62,158.07Z"/><path class="cls-10" d="M81.28,163.59s6.13-13.46,3.53-19.23c-.46,7.22-5.15,18.8-5.15,18.8Z"/><path class="cls-11" d="M76,162c6.09-2.7,12,2.31,11.63,5.59-.46,4.65-20.47,38.15-23.73,40.48-2.14,1.53-3.6,1-2.79-1.86C62.07,202.93,71.84,163.84,76,162Z"/><path class="cls-12" d="M86.71,170.38c-.91-1.42-5.1-3.28-6-3.28,1.4.93,5.43,4.62,5.43,4.62Z"/><path class="cls-12" d="M85.12,173.75a15.55,15.55,0,0,0-4-2,23.52,23.52,0,0,1,3.37,3.19Z"/><path class="cls-12" d="M65.85,188.78c2.74.65,2.27.65,3.2,1.12a11.69,11.69,0,0,0-3.45-.23Z"/><path class="cls-13" d="M210.77,161.61c-1.67-5,4.16-15,5.83-15.83l2.5.84S212.43,155.78,210.77,161.61Z"/><path class="cls-1" d="M239.08,175.76c0,19.16-16.65,26.65-26.65,22.49-9.16,5.83-28.31-4.17-28.31-21.65,0-13.11,10-25.82,27.06-18.33C232.42,149.11,239.08,162.65,239.08,175.76Z"/><path class="cls-9" d="M211.31,157.07c-7.14,3.69-17.89-2.16-18.91-7.1C199.2,145.25,211.78,148.15,211.31,157.07Z"/><ellipse class="cls-14" cx="192.98" cy="166.9" rx="5.36" ry="2.68" transform="translate(-52.93 234.88) rotate(-56.31)"/></g></g></svg>