<svg xmlns="http://www.w3.org/2000/svg" viewBox="0 0 71.77 54.62"><defs><style>.cls-1{fill:#ff4040;}.cls-2{fill:#fff;}</style></defs><title>meat</title><g id="Layer_2" data-name="Layer 2"><g id="Meat"><path class="cls-1" d="M19.77,54.62c-10.39,0-17.63-3.73-19.37-10C-.92,40,.42,32.45,14.15,23.39a18.06,18.06,0,0,1,3-12.73c3.93-5.55,11.36-9,22.1-10.23a60.5,60.5,0,0,1,7-.43c9.58,0,16.59,2.81,20.83,8.36,3.2,4.19,4.69,9.6,4.69,17,0,14.14-8.83,17.3-28.17,24.24l-2.34.84A65.19,65.19,0,0,1,19.77,54.62Z"/><path class="cls-2" d="M19.77,53.59c-9.9,0-16.77-3.44-18.38-9.2C.13,39.88,1.6,32.74,15.25,23.9A17.22,17.22,0,0,1,18,11.25c3.75-5.3,10.94-8.6,21.38-9.8A60.64,60.64,0,0,1,46.25,1c9.24,0,16,2.67,20,8,3.06,4,4.48,9.22,4.48,16.42,0,13.42-8,16.3-27.49,23.27l-2.34.84A63.87,63.87,0,0,1,19.77,53.59Z"/><path class="cls-1" d="M67.32,25.4c0,11.44-6.46,13.3-27.57,20.89C9.6,57.12-10.72,43.64,19,25.57,15.61,10.67,28.38,6.16,39.75,4.85,63.55,2.11,67.32,14,67.32,25.4Z"/><circle class="cls-2" cx="18.86" cy="40.3" r="4.28"/></g></g></svg>