<svg xmlns="http://www.w3.org/2000/svg" viewBox="0 0 250.56 273"><defs><style>.cls-1{fill:#a27a49;}.cls-2{fill:#e0d3b0;}.cls-3{fill:#b69771;}.cls-4{fill:#b99b76;}.cls-5{fill:#232323;}.cls-6{fill:#ff4040;}</style></defs><title>pug2</title><g id="Layer_2" data-name="Layer 2"><g id="Pug2"><rect class="cls-1" x="33.26" y="201" width="34" height="70" rx="12" ry="12" transform="translate(-42.81 13.38) rotate(-10.67)"/><rect class="cls-1" x="183.26" y="201" width="34" height="70" rx="12" ry="12" transform="translate(353.38 504.99) rotate(-169.33)"/><path class="cls-2" d="M168.29,141h-86a38.83,38.83,0,0,0-36.9,27.12L76.26,187v58h-27l1.38,5a12,12,0,0,0,12,12H188a12,12,0,0,0,12-12l7-70.33A38.78,38.78,0,0,0,168.29,141Z"/><path class="cls-3" d="M76.26,244.75V187L45.37,168.12a38.37,38.37,0,0,0-1.77,11.55L49.05,243H43.26a15,15,0,1,0,0,30h26a15,15,0,0,0,7-28.25Z"/><path class="cls-3" d="M206.26,243h-4.79l5.45-63.33a38.37,38.37,0,0,0-1.77-11.55L174.26,187v57.27a15,15,0,0,0,6,28.73h26a15,15,0,0,0,0-30Z"/><path class="cls-2" d="M224.3,82.47C224.3,36.92,179.8,0,124.9,0S25.49,36.92,25.49,82.47c0,32.43,22.58,60.48,55.4,73.95,7.59-20,27.65-68.56,44-68.56s36.41,48.51,44,68.56C201.72,143,224.3,114.9,224.3,82.47Z"/><path class="cls-4" d="M124.9,87.86c-16.36,0-36.42,48.51-44,68.56a117.93,117.93,0,0,0,88,0C161.31,136.37,141.25,87.86,124.9,87.86Z"/><path class="cls-5" d="M79.73,9S46.48,77.07,42.06,97.11-6.54,66.28.83,49.33,65.86,7.18,79.73,9Z"/><path class="cls-5" d="M170.83,9s33.25,68.09,37.67,88.13,48.6-30.83,41.23-47.78S184.7,7.18,170.83,9Z"/><path class="cls-6" d="M111,145.36s3,12.16,14,12.16,14-12.16,14-12.16l-14-8.84Z"/><path class="cls-5" d="M145.42,148.58l-17.51-14.43,0-.09h0v-4.59h8.31c6.7,0,10.65-7.86,6.84-13.63L131.74,98.77a8.1,8.1,0,0,0-13.68,0L106.8,115.85c-3.8,5.77.14,13.63,6.84,13.63H122v4.68l-17.5,14.42a.71.71,0,0,0,.74,1.2l19.75-10.33,19.75,10.33A.7.7,0,0,0,145.42,148.58Z"/><path class="cls-5" d="M84,68.25A16,16,0,0,1,99.9,83c0-.41,0-.82,0-1.23a16,16,0,0,0-32,0c0,.41,0,.82,0,1.23A16,16,0,0,1,84,68.25Z"/><path class="cls-5" d="M169,68.25A16,16,0,0,1,184.9,83c0-.41,0-.82,0-1.23a16,16,0,0,0-32,0c0,.41,0,.82.05,1.23A16,16,0,0,1,169,68.25Z"/></g></g></svg>