<svg xmlns="http://www.w3.org/2000/svg" viewBox="0 0 336 423"><defs><style>.cls-1{fill:#fff;}.cls-2{fill:#009e00;}.cls-3{fill:#e0d3b0;}.cls-4{fill:#b99b76;}.cls-5{fill:#232323;}.cls-6{fill:#ff4040;}</style></defs><title>pugSelected</title><g id="Layer_2" data-name="Layer 2"><g id="Pug_Selected" data-name="Pug Selected"><rect class="cls-1" width="336" height="423" rx="86.21" ry="86.21"/><rect class="cls-2" x="-33.5" y="53.5" width="403" height="316" rx="76.21" ry="76.21" transform="translate(379.5 43.5) rotate(90)"/><rect class="cls-1" x="-23.5" y="63.5" width="383" height="296" rx="66.21" ry="66.21" transform="translate(379.5 43.5) rotate(90)"/><path class="cls-3" d="M267,211.5C267,166,222.52,129,167.62,129S68.21,166,68.21,211.5c0,32.43,22.58,60.48,55.39,73.95,7.6-20.05,27.66-68.55,44-68.55s36.41,48.5,44,68.55C244.44,272,267,243.93,267,211.5Z"/><path class="cls-4" d="M167.62,216.9c-16.36,0-36.42,48.5-44,68.55a118,118,0,0,0,88,0C204,265.4,184,216.9,167.62,216.9Z"/><path class="cls-5" d="M122.45,138S89.2,206.1,84.78,226.14s-48.6-30.83-41.23-47.78S108.58,136.21,122.45,138Z"/><path class="cls-5" d="M213.55,138s33.25,68.08,37.67,88.12,48.6-30.83,41.23-47.78S227.42,136.21,213.55,138Z"/><path class="cls-6" d="M153.67,274.39s3,12.16,14,12.16,14-12.16,14-12.16l-14-8.84Z"/><path class="cls-5" d="M188.14,277.61l-17.51-14.43,0-.09h0v-4.59h8.31c6.7,0,10.65-7.86,6.84-13.63L174.46,227.8a8.1,8.1,0,0,0-13.68,0l-11.26,17.08c-3.8,5.77.14,13.63,6.84,13.63h8.31v4.68l-17.5,14.42a.71.71,0,0,0,.74,1.2l19.75-10.33,19.75,10.33A.7.7,0,0,0,188.14,277.61Z"/><path class="cls-5" d="M126.67,197.28a16,16,0,0,1,16,14.77c0-.41,0-.82,0-1.23a16,16,0,1,0-32,0c0,.41,0,.82,0,1.23A16,16,0,0,1,126.67,197.28Z"/><path class="cls-5" d="M211.67,197.28a16,16,0,0,1,16,14.77c0-.41,0-.82,0-1.23a16,16,0,0,0-32,0c0,.41,0,.82.05,1.23A16,16,0,0,1,211.67,197.28Z"/></g></g></svg>