<svg xmlns="http://www.w3.org/2000/svg" viewBox="0 0 211 184.15"><defs><style>.cls-1{fill:#ffec00;}</style></defs><title>sun1</title><g id="Layer_2" data-name="Layer 2"><g id="Sun1"><circle class="cls-1" cx="105.5" cy="92.08" r="50.51"/><rect class="cls-1" y="86.74" width="46.02" height="10.66" rx="5.33" ry="5.33"/><rect class="cls-1" x="41.25" y="158.18" width="46.02" height="10.66" rx="5.33" ry="5.33" transform="translate(-109.48 137.4) rotate(-60)"/><rect class="cls-1" x="123.74" y="158.18" width="46.02" height="10.66" rx="5.33" ry="5.33" transform="translate(78.51 372.36) rotate(-120)"/><rect class="cls-1" x="164.98" y="86.74" width="46.02" height="10.66" rx="5.33" ry="5.33" transform="translate(375.98 184.15) rotate(180)"/><rect class="cls-1" x="123.74" y="15.3" width="46.02" height="10.66" rx="5.33" ry="5.33" transform="translate(237.99 -96.13) rotate(120)"/><rect class="cls-1" x="41.25" y="15.3" width="46.02" height="10.66" rx="5.33" ry="5.33" transform="translate(50 -45.33) rotate(60)"/><rect class="cls-1" x="99.89" y="0.04" width="10.66" height="32.55" rx="5.33" ry="5.33"/><rect class="cls-1" x="34.42" y="38.17" width="10.66" height="32.55" rx="5.33" ry="5.33" transform="translate(-27.27 61.65) rotate(-60)"/><rect class="cls-1" x="34.7" y="113.92" width="10.66" height="32.55" rx="5.33" ry="5.33" transform="translate(-52.71 229.97) rotate(-120)"/><rect class="cls-1" x="100.45" y="151.56" width="10.66" height="32.55" rx="5.33" ry="5.33" transform="translate(211.56 335.67) rotate(-180)"/><rect class="cls-1" x="165.92" y="113.44" width="10.66" height="32.55" rx="5.33" ry="5.33" transform="translate(369.21 46.26) rotate(120)"/><rect class="cls-1" x="165.64" y="37.68" width="10.66" height="32.55" rx="5.33" ry="5.33" transform="translate(132.21 -121.09) rotate(60)"/></g></g></svg>