<svg xmlns="http://www.w3.org/2000/svg" viewBox="0 0 184.15 211"><defs><style>.cls-1{fill:#ffec00;}</style></defs><title>sun2</title><g id="Layer_2" data-name="Layer 2"><g id="Sun2"><circle class="cls-1" cx="92.08" cy="105.5" r="50.51"/><rect class="cls-1" x="69.07" y="17.68" width="46.02" height="10.66" rx="5.33" ry="5.33" transform="translate(115.08 -69.07) rotate(90)"/><rect class="cls-1" x="-2.37" y="58.92" width="46.02" height="10.66" rx="5.33" ry="5.33" transform="translate(34.89 -1.71) rotate(30)"/><rect class="cls-1" x="-2.37" y="141.41" width="46.02" height="10.66" rx="5.33" ry="5.33" transform="matrix(0.87, -0.5, 0.5, 0.87, -70.61, 29.98)"/><rect class="cls-1" x="69.07" y="182.66" width="46.02" height="10.66" rx="5.33" ry="5.33" transform="translate(-95.92 280.07) rotate(-90)"/><rect class="cls-1" x="140.51" y="141.41" width="46.02" height="10.66" rx="5.33" ry="5.33" transform="translate(231.75 355.59) rotate(-150)"/><rect class="cls-1" x="140.51" y="58.92" width="46.02" height="10.66" rx="5.33" ry="5.33" transform="translate(337.25 38.14) rotate(150)"/><rect class="cls-1" x="162.5" y="88.95" width="10.66" height="32.55" rx="5.33" ry="5.33" transform="translate(273.05 -62.61) rotate(90)"/><rect class="cls-1" x="124.38" y="23.48" width="10.66" height="32.55" rx="5.33" ry="5.33" transform="translate(37.25 -59.53) rotate(30)"/><rect class="cls-1" x="48.62" y="23.76" width="10.66" height="32.55" rx="5.33" ry="5.33" transform="translate(-12.79 32.34) rotate(-30)"/><rect class="cls-1" x="10.99" y="89.51" width="10.66" height="32.55" rx="5.33" ry="5.33" transform="translate(-89.46 122.1) rotate(-90)"/><rect class="cls-1" x="49.11" y="154.97" width="10.66" height="32.55" rx="5.33" ry="5.33" transform="translate(15.96 346.77) rotate(-150)"/><rect class="cls-1" x="124.87" y="154.69" width="10.66" height="32.55" rx="5.33" ry="5.33" transform="translate(328.44 253.93) rotate(150)"/></g></g></svg>